<?xml version="1.0"?><svg width="1600" height="1300" xmlns="http://www.w3.org/2000/svg">
 <title>hiDef Mountain</title>
 <defs>
  <linearGradient id="svg_1" x2="1" y2="1">
   <stop stop-color="#00bf00" offset="0"/>
   <stop stop-color="#000000" stop-opacity="0.996094" offset="1"/>
  </linearGradient>
 </defs>
 <metadata id="metadata2377">image/svg+xml</metadata>
 <g>
  <title>Layer 1</title>
  <g id="svg_28">
   <path d="m889.33252,37.436264c-5.293579,0.567924 -10.781128,3.117317 -16.973755,8.446236c-11.695801,12.625923 -21.733032,26.012756 -28.724121,41.890724c-12.672607,26.064911 -24.477051,52.543976 -36.994263,78.682053c-16.237793,35.168427 -33.10376,70.308578 -54.356201,102.860031c-17.151978,24.804413 -35.234497,49.034088 -58.08374,69.129333c-8.789063,8.511749 -20.878052,17.270477 -25.696655,27.656372c-3.5802,7.714691 10.070435,20.369995 17.759766,16.540771c10.78894,-5.37915 19.067017,-17.330688 27.290405,-26.533508c19.12146,-25.158905 33.529663,-53.337982 48.39563,-81.033142c18.679199,-34.30661 37.575317,-68.656067 56.851685,-102.640717c13.447388,-25.341949 28.956665,-49.340073 45.697876,-72.6586c6.758667,-11.453461 16.586792,-19.30246 26.92627,-26.978172c7.93689,9.744698 11.641479,22.592003 16.245483,34.170998c6.487061,16.5784 11.788574,33.523819 16.586548,50.633102c4.557373,17.035645 15.036255,23.997559 30.584106,30.050888c9.98291,2.028534 19.431396,-0.83197 29.057617,-3.105865c1.031128,-0.914001 1.108154,-0.923874 1.503418,-1.29306c-0.557739,0.575211 -0.627319,0.929718 2.201294,-0.882523c24.546753,13.294586 44.729858,32.193512 63.881104,52.047333c23.368774,25.679657 41.118042,55.245026 56.619263,85.981659c7.045776,11.960724 11.409424,24.727905 14.346436,37.771362c-2.604126,0.501068 -5.277588,0.981384 -7.882202,1.489441c-20.12915,6.378876 -21.462402,21.078186 -17.083252,38.705017c2.511841,8.174438 5.488037,16.164246 8.882935,23.959778c-4.533936,-1.664734 -8.999023,-3.352264 -13.532715,-5.023682c-11.951538,-3.756165 -24.189941,-4.165955 -36.575806,-4.014923c-13.540771,-0.136078 -23.47644,5.291321 -33.885864,13.003296c-4.293945,5.170319 -9.192627,9.699066 -14.028931,14.277588c-5.154053,3.100952 -11.378174,2.049408 -17.152466,2.31955c-17.338623,-2.084564 -34.653076,-2.955872 -52.038208,-2.686768c-20.996826,7.141144 -25.972778,25.328094 -34.103027,43.759857c-7.239502,18.398865 -19.338257,32.148682 -34.165527,44.736206c-10.656982,7.858643 -22.477051,7.575745 -34.730835,8.242432c-9.920532,-2.507507 -13.199341,-10.231567 -18.562866,-17.910339c-5.743164,-10.794189 -9.548706,-22.407104 -13.912598,-33.774658c-4.968018,-16.085022 -15.167969,-27.745575 -26.840576,-39.347229c-16.447388,-12.410461 -34.281494,-12.517212 -53.882813,-12.031769c-13.277344,1.44339 -26.438354,3.454742 -39.722656,4.731781c0.178223,-2.476074 -6.582153,-8.506287 -8.612183,-11.048828c-8.915161,-8.986603 -18.967468,-10.077057 -30.934387,-10.92749c-0.179077,-0.003052 -0.31073,0.054047 -0.486938,0.052673c-0.058777,-0.000519 -0.104736,0.017517 -0.162598,0.016632c-4.691589,-0.751312 -8.691528,-0.410309 -10.678894,1.465851c-6.660095,2.079681 -10.623962,6.523651 -16.211548,13.864502c-0.396118,0.519623 -0.23407,1.263458 0.193665,1.758087c2.599792,3.007721 5.004944,5.640778 7.427917,7.778564c-2.299133,4.001831 -4.705627,7.896515 -6.918579,11.738464c-15.63031,25.048431 -35.022278,47.48996 -54.943909,69.2789c-26.780518,29.430725 -55.333923,57.1474 -83.207703,85.564209c-27.994446,29.15741 -57.517578,56.963928 -86.542358,85.111511c-28.778015,26.632813 -57.300293,53.50885 -86.294861,79.910034c-27.836853,27.025818 -56.725281,52.907837 -85.588867,78.860046c-30.751709,29.053162 -63.213196,56.085938 -96.939056,81.694397c-26.765625,18.017151 -54.100616,35.311584 -82.0383,51.476257c-38.967438,40.475342 9.271454,58.351929 48.314178,47.884277c46.945068,-16.129883 94.555695,-28.891724 143.58432,-37.023438c24.661194,-3.620361 49.543945,-6.594971 74.331543,-6.651001c-10.146667,18.99939 -21.315796,37.353027 -30.35083,56.948975c-15.90448,34.890259 -1.760071,63.501709 36.916016,69.647461c32.910706,-5.11438 64.643188,-15.575317 97.488403,-21.581055c26.146973,-3.500732 52.463196,-4.74292 78.732727,-6.967041c28.978271,-3.213135 57.90033,-6.517578 87.064209,-7.366455c13.901489,-1.677124 27.118347,-0.512451 39.558472,2.729126c-0.57666,1.213623 -0.972961,2.161011 -1.723206,3.739624c-13.663635,21.209351 -28.12262,40.727783 -27.310303,66.6521c10.748779,34.090698 41.285767,26.183472 67.724854,16.859253c21.119202,-8.342285 43.07074,-12.334106 65.532532,-13.477905c6.293823,3.087036 7.97522,6.096924 12.409058,12.748413c12.92041,17.658936 30.723511,29.558472 49.472412,40.489258c16.780396,9.57666 34.599609,14.459961 53.076904,16.64209c-3.239624,1.276733 -6.37085,2.581787 -9.57959,3.936035c-15.152954,8.980225 -26.336914,19.539673 -42.807007,25.930908c-0.612305,0.238403 0.06958,1.943237 0.681763,1.705078c16.276733,-6.314209 31.204346,-6.07605 48.542603,-8.103638c36.746216,-8.250732 73.352783,-17.764526 110.998535,-21.244507c31.188599,-3.248291 63.625244,-1.059204 93.457397,-11.934082c23.69397,-12.060669 30.375366,-29.530518 20.989014,-54.002319c-4.97583,-14.719482 -9.928223,-26.716919 3.89917,-36.1604c14.679688,-10.440186 31.47522,-17.308594 49.60437,-20.830322c49.681885,-13.29541 99.704712,-25.194824 150.572754,-33.242188c61.788818,-9.254028 124.321533,-15.715698 186.327637,-3.907837c8.98291,1.333252 22.771118,3.360596 35.35144,6.251343c4.3396,9.057495 10.865967,14.789429 18.283081,21.335693c10.921021,7.465088 22.903442,7.198242 35.483276,7.528076c36.0177,-1.206787 45.550537,-53.37085 17.360962,-73.506958c-3.595703,-0.771606 -7.21521,-1.325562 -10.874146,-1.753662c0.171021,0.146973 0.380981,0.266724 0.542603,0.428101c-0.511108,-0.210815 -1.03064,-0.449219 -1.550171,-0.645752c-8.091431,-0.877075 -16.253296,-0.954102 -24.53894,-0.610352c2.767334,-2.118774 6.510864,-3.360352 11.11499,-3.451782c1.704956,0.406982 3.425781,0.498047 5.170044,0.743774c-0.403076,-0.217651 -0.829834,-0.435181 -1.224487,-0.680542c-11.657959,-7.198608 -23.244873,-14.396973 -32.902344,-24.303711c-18.45459,-18.662598 -35.435913,-38.286194 -52.557373,-58.106384c-25.399536,-32.610535 -51.062012,-65.171936 -71.135986,-101.416565c-28.685303,-46.663513 -56.432983,-93.782898 -83.58374,-141.329407c-26.422485,-48.200256 -51.658447,-97.101807 -79.189331,-144.710327c-20.19043,-35.396423 -41.629517,-70.057617 -61.726807,-105.492676c-8.68042,-16.135193 -15.81897,-33.128815 -18.136108,-51.276581c2.479614,-0.643097 4.874878,-1.292633 7.323853,-2.077118c16.439697,-8.736359 25.856689,-19.927734 17.416382,-38.739746c-11.812256,-15.553436 -25.86438,-29.135162 -37.777588,-44.648163c-21.430664,-27.660217 -41.217896,-56.485931 -62.811523,-84.025665c-17.663696,-22.386658 -36.350708,-44.002167 -51.689453,-68.069824c-10.603027,-10.401947 -18.3302,-17.464966 -34.374512,-13.795013c-3.394653,0.761841 -6.541382,2.159515 -10.098755,2.213043c-2.775269,-1.313736 -7.200928,-1.140839 -8.324707,-3.963379c-8.983032,-14.554108 -16.679688,-29.634872 -21.66333,-46.046402c-4.890381,-16.966934 -8.200073,-34.73349 -16.408325,-50.49099c-9.758179,-6.886902 -18.128784,-11.49015 -26.949097,-10.544067l0,0l0,-0.000038z" stroke-width="1px" fill-rule="nonzero" fill="#333333" id="svg_25"/>
  </g>
  <path d="m2034.869751,1446.906616c3.146484,2.086304 6.670898,3.602295 10.113037,5.264282c0.432373,0.091797 0.832764,0.309814 1.263916,0.405029c-3.143799,-3.283813 -7.200684,-4.654663 -11.376953,-5.669312z" id="path3556" stroke-width="1px" fill-rule="nonzero" fill="url(#svg_1)"/>
  <path d="m1346.77002,167.280045c7.79248,1.444916 3.327637,0.816925 -0.632202,0.404984c0.219116,-0.124817 0.412964,-0.280167 0.632202,-0.404984z" id="path3554" stroke-width="1px" fill-rule="nonzero" fill="url(#svg_1)"/>
 </g>
</svg>